# xmcd CD database file
#
# Track frame offsets:
#	150
#	30613
#	47788
#	61370
#	80565
#	95098
#	112405
#	133388
#	147828
#	157290
#
# Disc length: 2326 seconds
#
# Revision: 2
# Processed by: cddbd v1.5.2PL0 Copyright (c) Steve Scherf et al.
# Submitted via: CDex 1.99.1
#
DISCID=9c09140a
DTITLE=Various Artist - Black Top Blues-A-Rama, Volume 2 Live At Tipitina's
DYEAR=1900
DGENRE=Blues
TTITLE0=Nappy Brown - Lemon Squeezin' Daddy
TTITLE1=Nappy Brown - Bye Bye Baby
TTITLE2=Nappy Brown - Get to Gettin'
TTITLE3=Earl King - Things I Used to Do
TTITLE4=Ronnie Earl - West Side Soul
TTITLE5=Ronnie Earl - NIght Flight
TTITLE6=James Thunderbird Davis - Blue Monday Blues
TTITLE7=James Thunderbird Davis - Further On Up the Road
TTITLE8=James Thunderbird Davis - If I Had My Life to Live Over
TTITLE9=James Thunderbird Davis - Hello Sundown
EXTD=
EXTT0=Nappy Brown\n
EXTT1=Nappy Brown\n
EXTT2=Nappy Brown\n
EXTT3=Earl King\n
EXTT4=Ronnie Earl\n
EXTT5=Ronnie Earl\n
EXTT6=James Thunderbird Davis\n
EXTT7=James Thunderbird Davis\n
EXTT8=James Thunderbird Davis\n
EXTT9=James Thunderbird Davis\n
PLAYORDER=
